<svg width="696" height="517" fill="none" xmlns="http://www.w3.org/2000/svg"><path d="M212.504 0a3.899 3.899 0 013.899 3.9v328.503a3.898 3.898 0 01-3.899 3.899h-53.507a3.899 3.899 0 01-3.9-3.899V109.262l-24.113 223.559a3.899 3.899 0 01-3.877 3.481H90.599a3.899 3.899 0 01-3.873-3.448l-25.42-218.399v217.948a3.899 3.899 0 01-3.9 3.899H3.9a3.899 3.899 0 01-3.9-3.899V3.899A3.9 3.9 0 013.9 0h83.474a3.892 3.892 0 013.863 3.388c2.535 19.476 5.22 42.166 8.052 68.069l5.588 49.495c.524 4.641 7.281 4.604 7.754-.043L124.587 3.504A3.9 3.9 0 01128.466 0h84.038zm27.294 7.798A7.799 7.799 0 01247.597 0h192.506a7.798 7.798 0 017.798 7.798v51.706a7.798 7.798 0 01-7.798 7.798H333.408a7.799 7.799 0 00-7.799 7.798v48.174a7.8 7.8 0 007.799 7.799h101.359a7.798 7.798 0 017.798 7.798v48.382a7.798 7.798 0 01-7.798 7.798H333.408a7.8 7.8 0 00-7.799 7.799v58.352a7.798 7.798 0 007.799 7.798h114.995a7.8 7.8 0 017.799 7.799v51.705a7.798 7.798 0 01-7.799 7.798H247.597a7.798 7.798 0 01-7.799-7.798V7.798zM479.597 3.9c0-2.154 1.745-3.9 3.899-3.9h64.705c45.736 0 76.662 1.593 92.777 4.778 16.269 3.185 29.468 11.355 39.598 24.51C690.858 42.307 696 63.149 696 91.814c0 26.173-3.607 43.76-10.82 52.762-3.885 4.848-9.797 8.652-17.734 11.411-4.213 1.465-4.753 10.55-.682 12.373 6.388 2.861 11.222 6.08 14.502 9.659 6.6 7.201 10.667 13.848 12.202 19.941 1.688 5.955 2.532 22.504 2.532 49.646v84.798a3.899 3.899 0 01-3.899 3.899h-82.216a3.899 3.899 0 01-3.9-3.899V224.548c0-18.003-1.611-29.151-4.834-33.443-2.759-3.858-9.669-5.983-20.732-6.374-2.152-.076-3.901 1.68-3.901 3.833v143.839a3.899 3.899 0 01-3.899 3.899h-89.123a3.898 3.898 0 01-3.899-3.899V3.899zm100.82 53.712c-2.152-.084-3.899 1.673-3.899 3.826v66.982c0 2.153 1.746 3.908 3.899 3.839 8.83-.286 15.127-1.581 18.892-3.887 4.451-2.769 6.676-11.563 6.676-26.38V83.504c0-10.663-2.148-17.656-6.446-20.98-3.644-2.922-10.018-4.56-19.122-4.912zM156.454 414.044c0 7.887-6.395 14.282-14.282 14.282h-28.521c-12.921 0-23.395-10.475-23.395-23.395v-2.758c0-7.605-.734-12.335-2.202-14.19-1.362-1.916-4.455-2.875-9.277-2.875-5.45 0-8.91 1.144-10.378 3.432-1.467 2.287-2.201 7.234-2.201 14.838v69.742c0 7.295.734 12.056 2.201 14.282 1.468 2.225 4.77 3.338 9.906 3.338 4.927 0 8.125-1.113 9.592-3.338 1.573-2.226 2.359-7.451 2.359-15.674 0-10.397 8.429-18.826 18.826-18.826h41.529a5.843 5.843 0 015.843 5.843c0 15.518-1.887 26.524-5.661 33.015-3.669 6.492-11.898 12.18-24.687 17.065-12.684 4.884-28.355 7.326-47.014 7.326-19.393 0-35.38-2.071-47.959-6.213-12.579-4.143-20.912-9.862-25-17.157C2.043 485.423 0 474.387 0 459.672v-43.866c0-10.82.629-18.919 1.887-24.298 1.258-5.441 4.98-10.666 11.164-15.674 6.29-5.008 14.938-8.934 25.945-11.778 11.111-2.906 23.848-4.359 38.209-4.359 19.498 0 35.588 2.226 48.273 6.678 12.684 4.451 21.017 10.016 25.001 16.693 3.983 6.616 5.975 16.941 5.975 30.976zm77.872-54.347c7.288 0 13.197 5.909 13.197 13.197v1.911c0 9.093 9.901 15.155 18.761 13.11 6.812-1.546 14.07-2.319 21.776-2.319 11.837 0 21.888 1.739 30.151 5.218 8.376 3.479 13.457 7.506 15.244 12.08 1.898 4.509 2.848 12.788 2.848 24.835v65.027c0 12.921-10.475 23.395-23.395 23.395h-20.884c-12.921 0-23.395-10.474-23.395-23.395v-66.863c0-7.473-.67-12.273-2.01-14.399-1.229-2.126-4.076-3.189-8.543-3.189-4.132 0-6.924 1.096-8.376 3.286-1.452 2.19-2.177 6.539-2.177 13.046v68.119c0 12.921-10.475 23.395-23.395 23.395h-20.884c-12.921 0-23.395-10.474-23.395-23.395V383.092c0-12.92 10.474-23.395 23.395-23.395h31.082zm135.567 0c-5.631 0-10.196 4.565-10.196 10.196 0 5.63 4.565 10.195 10.196 10.195h136.063c5.631 0 10.195-4.565 10.195-10.195 0-5.631-4.564-10.196-10.195-10.196H369.893zm13.199 28.218c-12.92 0-23.395 10.474-23.395 23.395v81.446c0 12.921 10.475 23.395 23.395 23.395h109.664c12.921 0 23.395-10.474 23.395-23.395V411.31c0-12.921-10.474-23.395-23.395-23.395H383.092zM696 414.044c0 7.887-6.394 14.282-14.282 14.282h-28.521c-12.921 0-23.395-10.475-23.395-23.395v-2.758c0-7.605-.734-12.335-2.201-14.19-1.363-1.916-4.455-2.875-9.278-2.875-5.451 0-8.91 1.144-10.377 3.432-1.468 2.287-2.202 7.234-2.202 14.838v69.742c0 7.295.734 12.056 2.202 14.282 1.467 2.225 4.769 3.338 9.906 3.338 4.927 0 8.124-1.113 9.591-3.338 1.573-2.226 2.359-7.451 2.359-15.674 0-10.397 8.429-18.826 18.826-18.826h41.529a5.843 5.843 0 015.843 5.843c0 15.518-1.887 26.524-5.661 33.015-3.669 6.492-11.897 12.18-24.686 17.065-12.684 4.884-28.356 7.326-47.015 7.326-19.393 0-35.379-2.071-47.958-6.213-12.579-4.143-20.913-9.862-25.001-17.157-4.089-7.358-6.133-18.394-6.133-33.109v-43.866c0-10.82.629-18.919 1.887-24.298 1.258-5.441 4.979-10.666 11.164-15.674 6.29-5.008 14.938-8.934 25.945-11.778 11.111-2.906 23.848-4.359 38.209-4.359 19.498 0 35.589 2.226 48.273 6.678 12.684 4.451 21.018 10.016 25.001 16.693 3.983 6.616 5.975 16.941 5.975 30.976z" fill="#FAF9F7"/></svg>